<svg width="30" height="30" xmlns="http://www.w3.org/2000/svg">
 <g>
  <title>Layer 1</title>
  <g stroke="null" id="svg_1">
   <path stroke="null" id="svg_2" d="m26.88368,3.93197l-7.30548,0c0.17367,0.87518 0.22524,1.75339 0.1483,2.62093l6.98384,0l0,20.35864l-20.3584,0l0,-4.88483l-0.95376,0.95327c-0.4862,0.47076 -1.0578,0.83042 -1.66725,1.11602l0,2.98897c0,1.34857 1.0973,2.44619 2.44627,2.44619l20.70648,0c1.34873,0 2.44619,-1.09762 2.44619,-2.44619l0,-20.70648c0,-1.34898 -1.09746,-2.44652 -2.44619,-2.44652z"/>
   <g stroke="null" id="svg_4">
    <path stroke="null" id="svg_5" d="m21.07769,13.13241s-2.59116,3.7511 -2.59116,5.18231c0,1.43121 1.16035,2.59116 2.59116,2.59116s2.59116,-1.15995 2.59116,-2.59116s-2.59116,-5.18231 -2.59116,-5.18231zm-0.37936,-4.16771l-8.40871,-8.40871c-0.25304,-0.25304 -0.58463,-0.37936 -0.91622,-0.37936s-0.66317,0.12632 -0.91581,0.37936l-3.30292,3.30292l-3.48915,-3.48956c-0.25304,-0.25304 -0.66317,-0.25304 -0.91581,0l-0.91581,0.91581c-0.25264,0.25304 -0.25264,0.66317 0,0.91581l3.48956,3.48915l-3.83653,3.83653c-1.51785,1.51745 -1.51785,3.97824 0,5.49609l4.74465,4.74465c0.75872,0.75872 1.75348,1.13849 2.74784,1.13849c0.99476,0 1.98912,-0.37936 2.74784,-1.13849l8.97066,-8.97066c0.50609,-0.50609 0.50609,-1.32594 0.0004,-1.83203l0,0zm-4.70538,2.87335l-12.97522,0c0.05506,-0.15547 0.14454,-0.32309 0.30082,-0.47896l0.5324,-0.5324l3.30413,-3.30413l2.37253,2.37253c0.50568,0.50568 1.32594,0.50568 1.83162,0s0.50568,-1.32594 0,-1.83162l-2.37253,-2.37253l2.3867,-2.3867l6.57668,6.57668l-1.95713,1.95713l0,0z"/>
   </g>
  </g>
 </g>

</svg>