<svg width="48" height="48" viewBox="0 0 48 48" fill="none" xmlns="http://www.w3.org/2000/svg">
    <g clip-path="url(#clip0_41_6)">
        <path d="M10.9474 16.3591L13.5582 18.4519L22.1543 11.5603L22.1543 31.1579L25.8462 31.1579L25.8462 11.5603L34.4421 18.4519L37.0526 16.3592L24 5.89474L10.9474 16.3591Z" fill="black"/>
        <path d="M11.7895 37.0526V32H37.0526V37.0526H11.7895Z" fill="black"/>
        <path fill-rule="evenodd" clip-rule="evenodd" d="M48 24C48 37.2547 37.2547 48 24 48C10.7452 48 0 37.2547 0 24C0 10.7452 10.7452 0 24 0C37.2547 0 48 10.7452 48 24ZM43.2 24C43.2 34.6039 34.6039 43.2 24 43.2C13.3961 43.2 4.8 34.6039 4.8 24C4.8 13.3961 13.3961 4.8 24 4.8C34.6039 4.8 43.2 13.3961 43.2 24Z" fill="black"/>
    </g>
    <defs>
        <clipPath id="clip0_41_6">
            <rect width="48" height="48" fill="white"/>
        </clipPath>
    </defs>
</svg>
