<svg width="48" height="48" viewBox="0 0 48 48" fill="none" xmlns="http://www.w3.org/2000/svg">
<g clip-path="url(#clip0_10_108)">
<rect x="1.5" y="1.5" width="45" height="45" rx="2.5" stroke="black" stroke-width="3"/>
<path fill-rule="evenodd" clip-rule="evenodd" d="M40 42H8C6.896 42 6 41.104 6 40C6 38.8973 6.896 38 8 38H40C41.104 38 42 38.8973 42 40C42 41.104 41.104 42 40 42Z" fill="black"/>
<path fill-rule="evenodd" clip-rule="evenodd" d="M32.8953 31.8016C31.1484 32.2413 29.2312 31.9598 27.6203 30.8604L14.584 21.8612C13.9793 21.4483 13.8182 20.6156 14.2235 20.0002L23.0926 6.59269C23.4993 5.97862 24.3193 5.81505 24.9254 6.228C24.9254 6.228 32.8834 11.6554 38.0778 15.199C41.1055 17.2624 41.9109 21.4281 39.8775 24.5012C38.9202 25.9492 37.8573 27.5567 36.8987 29.0048C35.9242 30.4782 34.4745 31.4342 32.8953 31.8016ZM17.7794 19.4358H38.1372C37.8639 18.6434 37.3463 17.9288 36.6056 17.4246L24.549 9.2018L17.7794 19.4358Z" fill="black"/>
<path fill-rule="evenodd" clip-rule="evenodd" d="M10.4213 22.5915C10.6591 22.2223 11.0641 22 11.5 22C11.9359 22 12.3409 22.2223 12.5787 22.5915C12.5787 22.5915 14.2167 25.146 15.2003 27.4431C15.6876 28.5819 16 29.6752 16 30.45C16 32.9616 13.984 35 11.5 35C9.016 35 7 32.9616 7 30.45C7 29.6752 7.31243 28.5819 7.79971 27.4431C8.78329 25.146 10.4213 22.5915 10.4213 22.5915Z" fill="black"/>
</g>
<defs>
<clipPath id="clip0_10_108">
<rect width="48" height="48" fill="white" transform="matrix(-1 0 0 1 48 0)"/>
</clipPath>
</defs>
</svg>
