<svg width="48" height="48" viewBox="0 0 48 48" fill="none" xmlns="http://www.w3.org/2000/svg">
<g clip-path="url(#clip0_10_105)">
<rect x="1.5" y="1.5" width="45" height="45" rx="2.5" stroke="black" stroke-width="3"/>
<path d="M29.5278 18.4722H29.545M20.9167 16.75H20.9339M15.75 23.6389H15.7672M23.5 40C14.9396 40 8 33.0605 8 24.5C8 15.9396 14.9396 9 23.5 9C32.0605 9 39 15.9396 39 24.5C39 27.3535 36.6869 29.6667 33.8333 29.6667H32.8C32.16 29.6667 31.84 29.6667 31.5722 29.709C30.0983 29.9426 28.9426 31.0983 28.709 32.5722C28.6667 32.84 28.6667 33.16 28.6667 33.8V34.8333C28.6667 37.6869 26.3535 40 23.5 40ZM30.3889 18.4722C30.3889 18.9478 30.0033 19.3333 29.5278 19.3333C29.0523 19.3333 28.6667 18.9478 28.6667 18.4722C28.6667 17.9966 29.0523 17.6111 29.5278 17.6111C30.0033 17.6111 30.3889 17.9966 30.3889 18.4722ZM21.7778 16.75C21.7778 17.2256 21.3922 17.6111 20.9167 17.6111C20.4412 17.6111 20.0556 17.2256 20.0556 16.75C20.0556 16.2744 20.4412 15.8889 20.9167 15.8889C21.3922 15.8889 21.7778 16.2744 21.7778 16.75ZM16.6111 23.6389C16.6111 24.1144 16.2256 24.5 15.75 24.5C15.2744 24.5 14.8889 24.1144 14.8889 23.6389C14.8889 23.1634 15.2744 22.7778 15.75 22.7778C16.2256 22.7778 16.6111 23.1634 16.6111 23.6389Z" stroke="black" stroke-width="4" stroke-linecap="round" stroke-linejoin="round"/>
</g>
<defs>
<clipPath id="clip0_10_105">
<rect width="48" height="48" fill="white"/>
</clipPath>
</defs>
</svg>
