<svg width="48" height="48" viewBox="0 0 48 48" fill="none" xmlns="http://www.w3.org/2000/svg">
<rect x="1.5" y="1.5" width="45" height="45" rx="2.5" stroke="black" stroke-width="3"/>
<path d="M10.9728 33.8544L21.6252 12.7073C22.3954 11.178 22.7807 10.4133 23.2944 10.1633C23.742 9.94556 24.2579 9.94556 24.7055 10.1633C25.2195 10.4133 25.6046 11.178 26.3749 12.7073L37.0271 33.8544C37.7162 35.2224 38.0609 35.9064 37.9912 36.4645C37.9304 36.9515 37.6793 37.39 37.2982 37.6743C36.8615 38 36.1251 38 34.6523 38H13.3477C11.8749 38 11.1386 38 10.7019 37.6743C10.3208 37.39 10.0696 36.9515 10.0088 36.4645C9.93918 35.9064 10.2837 35.2224 10.9728 33.8544Z" stroke="black" stroke-width="6" stroke-linecap="round" stroke-linejoin="round"/>
</svg>
