<svg xmlns="http://www.w3.org/2000/svg" width="68" height="68" viewBox="0 0 68 68" fill="none">
<path d="M23.6667 54.6667L16.7778 65M44.3333 54.6667L51.2222 65M16.7778 40.8889H51.2222M20.2222 40.8889V30.5556M34 40.8889V13.3333M47.7778 40.8889V23.6667M14.0222 54.6667H53.9778C57.8359 54.6667 59.7651 54.6667 61.2387 53.9158C62.5348 53.2555 63.5888 52.2015 64.2491 50.9053C65 49.4318 65 47.5026 65 43.6444V14.0222C65 10.1641 65 8.235 64.2491 6.7614C63.5888 5.46515 62.5348 4.41129 61.2387 3.75085C59.7651 3 57.8359 3 53.9778 3H14.0222C10.1641 3 8.235 3 6.7614 3.75085C5.46515 4.41129 4.41129 5.46515 3.75085 6.7614C3 8.235 3 10.1641 3 14.0222V43.6444C3 47.5026 3 49.4318 3.75085 50.9053C4.41129 52.2015 5.46515 53.2555 6.7614 53.9158C8.235 54.6667 10.1641 54.6667 14.0222 54.6667Z" stroke="black" stroke-width="5" stroke-linecap="round" stroke-linejoin="round"/>
</svg>